<svg width="20" height="20" viewBox="0 0 20 20" fill="none" xmlns="http://www.w3.org/2000/svg">
<path d="M11.7679 3.07143H9.08929C9.054 3.07102 9.01899 3.07768 8.98631 3.091C8.95362 3.10431 8.92394 3.12403 8.89898 3.14898C8.87403 3.17394 8.85431 3.20362 8.841 3.23631C8.82768 3.26899 8.82102 3.304 8.82143 3.33929V4.14286H12.0357V3.33929C12.0361 3.304 12.0295 3.26899 12.0161 3.23631C12.0028 3.20362 11.9831 3.17394 11.9582 3.14898C11.9332 3.12403 11.9035 3.10431 11.8708 3.091C11.8382 3.07768 11.8031 3.07102 11.7679 3.07143Z" fill="white"/>
<path d="M16.3214 4.14286H13.1071V3.33929C13.1071 2.98409 12.966 2.64343 12.7149 2.39227C12.4637 2.1411 12.1231 2 11.7679 2H9.08929C8.73409 2 8.39343 2.1411 8.14227 2.39227C7.8911 2.64343 7.75 2.98409 7.75 3.33929V4.14286H4.53571C4.39363 4.14286 4.25737 4.1993 4.15691 4.29976C4.05644 4.40023 4 4.53649 4 4.67857C4 4.82065 4.05644 4.95691 4.15691 5.05738C4.25737 5.15784 4.39363 5.21429 4.53571 5.21429H5.10491L5.74107 15.4237C5.78862 16.3227 6.47768 17 7.34821 17H13.5089C14.3838 17 15.0592 16.3377 15.1161 15.4263L15.7522 5.21429H16.3214C16.4635 5.21429 16.5998 5.15784 16.7002 5.05738C16.8007 4.95691 16.8571 4.82065 16.8571 4.67857C16.8571 4.53649 16.8007 4.40023 16.7002 4.29976C16.5998 4.1993 16.4635 4.14286 16.3214 4.14286ZM8.3048 14.8571H8.28571C8.14688 14.8572 8.01343 14.8034 7.9135 14.707C7.81356 14.6107 7.75495 14.4793 7.75 14.3405L7.48214 6.84051C7.47708 6.69843 7.52867 6.56016 7.62555 6.45612C7.72244 6.35207 7.85669 6.29078 7.99877 6.28571C8.14085 6.28065 8.27912 6.33224 8.38317 6.42913C8.48721 6.52601 8.54851 6.66026 8.55357 6.80234L8.82143 14.3023C8.82398 14.3727 8.81264 14.4429 8.78805 14.5089C8.76346 14.5748 8.7261 14.6353 8.67812 14.6868C8.63014 14.7384 8.57247 14.7799 8.50841 14.8091C8.44435 14.8384 8.37516 14.8547 8.3048 14.8571ZM10.9643 14.3214C10.9643 14.4635 10.9078 14.5998 10.8074 14.7002C10.7069 14.8007 10.5707 14.8571 10.4286 14.8571C10.2865 14.8571 10.1502 14.8007 10.0498 14.7002C9.9493 14.5998 9.89286 14.4635 9.89286 14.3214V6.82143C9.89286 6.67935 9.9493 6.54309 10.0498 6.44262C10.1502 6.34216 10.2865 6.28571 10.4286 6.28571C10.5707 6.28571 10.7069 6.34216 10.8074 6.44262C10.9078 6.54309 10.9643 6.67935 10.9643 6.82143V14.3214ZM12.0357 4.14286H8.82143V3.33929C8.82102 3.304 8.82768 3.26899 8.841 3.23631C8.85431 3.20362 8.87403 3.17394 8.89898 3.14898C8.92394 3.12403 8.95362 3.10431 8.98631 3.091C9.01899 3.07768 9.054 3.07102 9.08929 3.07143H11.7679C11.8031 3.07102 11.8382 3.07768 11.8708 3.091C11.9035 3.10431 11.9332 3.12403 11.9582 3.14898C11.9831 3.17394 12.0028 3.20362 12.0161 3.23631C12.0295 3.26899 12.0361 3.304 12.0357 3.33929V4.14286ZM13.1071 14.3405C13.1022 14.4793 13.0436 14.6107 12.9436 14.707C12.8437 14.8034 12.7103 14.8572 12.5714 14.8571H12.552C12.4817 14.8546 12.4125 14.8383 12.3485 14.8091C12.2845 14.7798 12.2269 14.7382 12.1789 14.6867C12.131 14.6352 12.0936 14.5747 12.0691 14.5088C12.0445 14.4428 12.0332 14.3727 12.0357 14.3023L12.3036 6.80234C12.3061 6.73199 12.3224 6.66282 12.3517 6.59879C12.3809 6.53475 12.4225 6.4771 12.474 6.42913C12.5255 6.38115 12.586 6.3438 12.6519 6.31919C12.7179 6.29458 12.788 6.28321 12.8584 6.28571C12.9287 6.28822 12.9979 6.30456 13.0619 6.3338C13.126 6.36303 13.1836 6.4046 13.2316 6.45612C13.2796 6.50763 13.3169 6.5681 13.3415 6.63405C13.3661 6.70001 13.3775 6.77016 13.375 6.84051L13.1071 14.3405Z" fill="white"/>
</svg>
