<svg width="273" height="335" viewBox="0 0 273 335" fill="none" xmlns="http://www.w3.org/2000/svg">
<rect width="273" height="335" rx="56" fill="#23262E"/>
<path d="M127.856 140.92V190.896C127.914 194.551 129.409 198.036 132.019 200.6C134.629 203.164 138.145 204.601 141.807 204.601C145.47 204.601 148.985 203.164 151.596 200.6C154.206 198.036 155.701 194.551 155.759 190.896L155.804 125.39C155.842 122.267 155.258 119.167 154.087 116.27C152.915 113.373 151.179 110.737 148.979 108.515C146.78 106.293 144.16 104.528 141.271 103.324C138.383 102.12 135.284 101.5 132.154 101.5C129.024 101.5 125.925 102.12 123.036 103.324C120.148 104.528 117.528 106.293 115.328 108.515C113.128 110.737 111.392 113.373 110.221 116.27C109.049 119.167 108.466 122.267 108.503 125.39V191.338C108.44 195.735 109.253 200.101 110.895 204.183C112.537 208.264 114.976 211.979 118.069 215.111C121.163 218.243 124.849 220.73 128.915 222.428C132.98 224.126 137.343 225 141.75 225C146.157 225 150.52 224.126 154.585 222.428C158.651 220.73 162.337 218.243 165.431 215.111C168.524 211.979 170.963 208.264 172.605 204.183C174.247 200.101 175.06 195.735 174.997 191.338V129.712" stroke="white" stroke-width="14" stroke-miterlimit="10" stroke-linecap="round"/>
</svg>
